<svg xmlns="http://www.w3.org/2000/svg" version="1.1" xmlns:xlink="http://www.w3.org/1999/xlink" xmlns:svgjs="http://svgjs.com/svgjs" width="2000" height="1000" preserveAspectRatio="none" viewBox="0 0 2000 1000">
    <style type="text/css">
        rect{fill:url(#rect)}
        #right{fill:url(#righG)}
        #left{fill:url(#leftG)}
      </style>
      <defs>
        <linearGradient id="rect">
          <stop offset="5%" stop-color="#ff6036" />
          <stop offset="95%" stop-color="#fd267a" />
        </linearGradient>
        <linearGradient id="righG">
            <stop offset="50%" stop-color="#fd267a" />
            <stop offset="90%" stop-color="#ff6036" />
          </linearGradient>
          <linearGradient id="leftG">
              <stop offset="20%" stop-color="#ff6036" />
            <stop offset="90%" stop-color="#fd267a" />
          </linearGradient>
      </defs>
    <g mask="url(&quot;#SvgjsMask1117&quot;)" fill="none">
        <rect width="2000" height="1000" x="0" y="0"></rect>
        <path id="right" d="M0,849.103C156.19,843.042,249.735,677.256,376.283,585.508C494.237,499.99,644.134,453.406,718.55,328.151C796.405,197.108,842.066,30.051,791.779,-113.841C742.778,-254.054,554.666,-284.367,463.508,-401.632C364.24,-529.33,377.9,-735.254,241.339,-821.925C99.562,-911.906,-95.076,-917.247,-251.101,-855.17C-403.459,-794.552,-471.653,-625.494,-574.122,-497.48C-672.062,-375.125,-823.504,-276.591,-839.062,-120.639C-854.541,34.525,-734.003,164.893,-653.526,298.455C-581.759,417.562,-501.872,525.858,-395.531,615.459C-276.008,716.167,-156.176,855.164,0,849.103" fill="#091b2e"></path>
        <path id="left" d="M2000 1780.527C2142.386 1802.288 2263.618 1674.2910000000002 2373.458 1581.112 2472.357 1497.214 2565.075 1398.56 2598.103 1273.144 2628.9030000000002 1156.188 2550.514 1042.222 2547.21 921.323 2543.285 777.692 2665.947 612.874 2576.975 500.049 2489.237 388.789 2305.584 456.97299999999996 2165.303 437.029 2048.595 420.43600000000004 1933.487 355.33900000000006 1821.671 392.66600000000005 1710.883 429.649 1653.388 545.114 1576.9569999999999 633.432 1500.579 721.688 1387.3890000000001 794.049 1373.971 909.991 1360.5929999999998 1025.589 1451.467 1123.033 1508.563 1224.432 1560.826 1317.247 1622.806 1397.3519999999999 1693.342 1477.1689999999999 1790.525 1587.138 1854.927 1758.355 2000 1780.527" fill="#133960"></path>
    </g>
    <defs>
    </defs>
</svg>